<svg width="1600" height="900" viewBox="0 0 1600 900" fill="none" xmlns="http://www.w3.org/2000/svg">
  <rect width="1600" height="900" rx="36" fill="#F6F7F8"/>
  <rect x="32" y="32" width="1536" height="836" rx="28" fill="#FFFFFF" stroke="#D7DEE5" stroke-width="2"/>
  <text x="84" y="104" fill="#111827" font-size="42" font-family="IBM Plex Sans, Arial, sans-serif" font-weight="700">1 Server / Minimal Validation</text>
  <text x="84" y="146" fill="#4B5563" font-size="22" font-family="IBM Plex Sans, Arial, sans-serif">PoC shape for validating portal + platform workflow, with external model API and bundled Dify dependencies.</text>

  <g font-family="IBM Plex Sans, Arial, sans-serif">
    <rect x="84" y="202" width="1060" height="600" rx="28" fill="#F8FAFC" stroke="#D7DEE5" stroke-width="2"/>
    <text x="126" y="256" fill="#111827" font-size="30" font-weight="700">S1 Single Node</text>
    <text x="126" y="292" fill="#64748B" font-size="18">Recommended: 8 vCPU / 16 GiB RAM / 300 GiB NVMe</text>

    <rect x="126" y="334" width="202" height="72" rx="20" fill="#FCE7F3"/>
    <rect x="350" y="334" width="202" height="72" rx="20" fill="#FFF7ED"/>
    <text x="175" y="370" fill="#9D174D" font-size="22" font-weight="700">Portal UI</text>
    <text x="150" y="392" fill="#9D174D" font-size="14" font-weight="600">AgentifUI / OpenClaw</text>
    <text x="428" y="378" fill="#C2410C" font-size="28" font-weight="700">Dify</text>

    <path d="M452 406V442" stroke="#94A3B8" stroke-width="4" stroke-linecap="round"/>

    <rect x="126" y="454" width="976" height="250" rx="24" fill="#EEF6FF"/>
    <text x="160" y="502" fill="#1E3A8A" font-size="24" font-weight="700">Bundled containers started with Dify</text>

    <rect x="160" y="536" width="188" height="56" rx="18" fill="#DBEAFE"/>
    <rect x="366" y="536" width="164" height="56" rx="18" fill="#DBEAFE"/>
    <rect x="548" y="536" width="186" height="56" rx="18" fill="#DBEAFE"/>
    <rect x="752" y="536" width="150" height="56" rx="18" fill="#DBEAFE"/>
    <rect x="920" y="536" width="148" height="56" rx="18" fill="#DBEAFE"/>
    <text x="192" y="571" fill="#1E3A8A" font-size="22" font-weight="700">PostgreSQL</text>
    <text x="417" y="571" fill="#1E3A8A" font-size="22" font-weight="700">Redis</text>
    <text x="605" y="571" fill="#1E3A8A" font-size="22" font-weight="700">Weaviate</text>
    <text x="798" y="571" fill="#1E3A8A" font-size="22" font-weight="700">Nginx</text>
    <text x="954" y="571" fill="#1E3A8A" font-size="22" font-weight="700">Sandbox</text>

    <text x="160" y="636" fill="#475569" font-size="18">All runtime dependencies share the same host.</text>
    <text x="160" y="664" fill="#475569" font-size="18">Do not add LiteLLM, vLLM, OpenMetadata or full observability stack in this tier.</text>

    <rect x="126" y="726" width="976" height="52" rx="18" fill="#111827"/>
    <text x="160" y="760" fill="#F9FAFB" font-size="18">Use this shape only for internal validation and rollback-friendly iteration, not for formal production traffic.</text>

    <rect x="1196" y="286" width="320" height="168" rx="24" fill="#FFFBEB" stroke="#F3D38C" stroke-width="2"/>
    <text x="1252" y="344" fill="#B45309" font-size="30" font-weight="700">External Model API</text>
    <text x="1240" y="382" fill="#78350F" font-size="18">OpenAI-compatible API</text>
    <text x="1240" y="410" fill="#78350F" font-size="18">No self-hosted vLLM / Qwen in this tier</text>

    <path d="M552 370H1196" stroke="#94A3B8" stroke-width="4" stroke-linecap="round"/>
    <polygon points="1182,360 1204,370 1182,380" fill="#94A3B8"/>
  </g>
</svg>
